# 3ds Max Wavefront OBJ Exporter v0.97b - (c)2007 guruware
# File Created: 26.02.2016 18:21:52

mtllib arwingfuselage.mtl

#
# object polygon1
#

v  1.7863 -1.1612 1.2316
v  1.6304 1.1911 1.5800
v  1.8136 -1.1032 0.8112
v  2.1819 -1.2998 2.1685
v  2.2134 -6.2900 0.2775
v  2.2631 -6.3082 0.4009
v  2.3121 -6.3560 0.2683
v  2.3134 -6.3121 0.4216
v  2.3637 -6.3102 0.4007
v  2.3913 -1.3176 2.2657
v  2.5663 -1.3075 2.1674
v  2.4109 0.0268 3.3466
v  2.6407 0.0836 3.2573
v  1.6608 0.0248 -0.4929
v  2.3578 -4.6870 -0.7393
v  2.0759 -1.5829 0.0585
v  2.3578 -4.6665 -0.8860
v  2.4400 -4.6653 -0.9071
v  2.4370 -4.8380 -0.7604
v  2.5223 -4.6698 -0.8865
v  2.5223 -4.6903 -0.7398
v  3.4096 -0.0104 -0.4978
v  2.9333 -1.6002 0.0561
v  3.4343 1.1909 -0.3306
v  2.9868 1.0285 0.2649
v  2.6506 3.8577 -0.2324
v  -3.2128 0.1229 -0.4792
v  -2.5158 -4.5889 -0.7256
v  -2.7977 -1.4849 0.0722
v  -2.5158 -4.5684 -0.8723
v  -2.4336 -4.5672 -0.8934
v  -2.4366 -4.7400 -0.7467
v  -2.3513 -4.5717 -0.8728
v  -2.3513 -4.5922 -0.7261
v  -1.4640 0.0877 -0.4841
v  -1.9403 -1.5021 0.0698
v  -1.4393 1.2890 -0.3169
v  -1.8869 1.1266 0.2786
v  -2.1395 3.9326 -0.2220
v  -2.4074 -1.2074 2.1814
v  -2.1918 0.1194 3.3595
v  -2.4196 0.1855 3.2715
v  -2.2324 -1.2246 2.2787
v  -2.4162 -6.2140 0.4141
v  -2.3659 -6.2179 0.4348
v  -2.3672 -6.2618 0.2814
v  -2.3156 -6.2161 0.4138
v  -2.2658 -6.1998 0.2901
v  -2.0229 -1.2152 2.1803
v  -2.4659 -6.1958 0.2906
v  -3.0599 -1.0344 1.0350
v  -3.0030 -1.0063 0.8247
v  -3.0872 -1.0631 1.2452
v  -3.2914 1.4050 1.3883
v  3.5503 1.2673 1.3691
v  3.2461 -1.1906 1.2275
v  2.4135 -6.2940 0.2769
v  3.2188 -1.1608 1.0174
v  3.1619 -1.1304 0.8074
v  2.5352 0.0956 -1.1302
v  2.5599 1.2969 -0.9629
v  1.6855 1.2261 -0.3256
v  -2.3384 0.1937 -1.1165
v  -2.3137 1.3950 -0.9492
v  -3.1881 1.3242 -0.3120
v  -1.3433 1.7241 1.8667
v  -1.9327 0.3670 3.3287
v  -1.3555 1.5146 1.5281
v  -2.0986 4.5472 4.8698
v  -1.8808 4.5761 4.5786
v  -2.0827 4.8223 4.9090
v  -2.1794 0.2923 3.4292
v  -2.4241 0.3922 3.3322
v  -3.2555 1.7442 1.8696
v  -3.2676 1.5257 1.5961
v  -1.3750 1.2516 1.5885
v  -1.6274 -1.0925 1.2411
v  -1.6547 -1.0334 0.8210
v  -1.9276 0.1756 3.2701
v  2.1618 0.2846 3.3172
v  1.6193 1.6645 1.8584
v  1.6211 1.4547 1.5197
v  2.5044 4.4546 4.8569
v  2.4058 0.2000 3.4163
v  2.6538 0.2900 3.3180
v  3.5307 1.6076 1.8505
v  3.5325 1.3888 1.5770
v  2.7225 4.4977 4.5676
v  2.4998 4.7301 4.8961
v  2.4919 3.8393 -0.2350
v  2.1294 1.0458 0.2674
v  2.5712 3.8764 -0.4338
v  2.5712 3.8485 -0.2337
v  -2.2972 3.9572 -0.2186
v  -2.7442 1.1438 0.2810
v  -2.2183 3.9728 -0.4203
v  -2.2183 3.9449 -0.2203
v  2.1487 0.0935 3.2586
v  -2.3137 1.3950 -0.9492
v  -2.3164 4.5991 4.5818
v  -1.6547 -1.0334 0.8210
v  2.2863 4.4922 4.5669
v  2.5599 1.2969 -0.9629
v  -1.6547 -1.0334 0.8210
v  -2.2658 -6.1998 0.2901
v  -2.3672 -6.2618 0.2814
v  -3.0030 -1.0063 0.8247
v  -2.4659 -6.1958 0.2906
v  1.8136 -1.1032 0.8112
v  2.3121 -6.3560 0.2683
v  2.2134 -6.2900 0.2775
v  1.8136 -1.1032 0.8112
v  3.1619 -1.1304 0.8074
v  2.4135 -6.2940 0.2769
# 114 vertices

vn -0.7294 0.2154 0.6493
vn -0.7270 0.1954 0.6582
vn -0.8274 0.3125 0.4667
vn -0.7294 0.2154 0.6493
vn -0.4965 -0.0763 0.8647
vn -0.7270 0.1954 0.6582
vn -0.7538 -0.0208 0.6567
vn -0.4965 -0.0763 0.8647
vn -0.7294 0.2154 0.6493
vn -0.7538 -0.0208 0.6567
vn -0.5212 -0.4887 0.6997
vn -0.4965 -0.0763 0.8647
vn -0.3304 -0.9297 0.1626
vn -0.5212 -0.4887 0.6997
vn -0.7538 -0.0208 0.6567
vn -0.3304 -0.9297 0.1626
vn 0.0026 -0.8371 0.5470
vn -0.5212 -0.4887 0.6997
vn 0.3961 -0.9166 0.0537
vn 0.0026 -0.8371 0.5470
vn -0.3304 -0.9297 0.1626
vn 0.3961 -0.9166 0.0537
vn 0.2227 -0.6620 0.7156
vn 0.0026 -0.8371 0.5470
vn 0.7392 -0.6689 0.0785
vn 0.2227 -0.6620 0.7156
vn 0.3961 -0.9166 0.0537
vn 0.7392 -0.6689 0.0785
vn 0.1219 -0.7601 0.6382
vn 0.2227 -0.6620 0.7156
vn 0.6186 -0.7838 0.0545
vn 0.1219 -0.7601 0.6382
vn 0.7392 -0.6689 0.0785
vn -0.8767 0.3339 0.3461
vn -0.8241 0.0860 0.5599
vn -0.5392 0.1248 0.8329
vn -0.8767 0.3339 0.3461
vn -0.9988 0.0489 -0.0101
vn -0.8241 0.0860 0.5599
vn -0.6100 -0.1329 -0.7811
vn -0.9988 0.0489 -0.0101
vn -0.8767 0.3339 0.3461
vn -0.6100 -0.1329 -0.7811
vn -0.6338 -0.5842 -0.5070
vn -0.9988 0.0489 -0.0101
vn 0.1831 -0.5157 -0.8370
vn -0.6338 -0.5842 -0.5070
vn -0.6100 -0.1329 -0.7811
vn 0.1831 -0.5157 -0.8370
vn 0.6394 -0.6131 -0.4640
vn -0.6338 -0.5842 -0.5070
vn 0.6118 -0.3771 -0.6953
vn 0.6394 -0.6131 -0.4640
vn 0.1831 -0.5157 -0.8370
vn 0.6118 -0.3771 -0.6953
vn 0.8365 -0.5324 -0.1297
vn 0.6394 -0.6131 -0.4640
vn 0.7265 -0.1300 -0.6747
vn 0.8365 -0.5324 -0.1297
vn 0.6118 -0.3771 -0.6953
vn 0.7265 -0.1300 -0.6747
vn 0.9293 -0.3605 0.0807
vn 0.8365 -0.5324 -0.1297
vn 0.9275 0.3173 -0.1977
vn 0.9293 -0.3605 0.0807
vn 0.7265 -0.1300 -0.6747
vn -0.8767 0.3339 0.3461
vn -0.8241 0.0860 0.5599
vn -0.5392 0.1248 0.8329
vn -0.8767 0.3339 0.3461
vn -0.9988 0.0489 -0.0101
vn -0.8241 0.0860 0.5599
vn -0.6100 -0.1329 -0.7811
vn -0.9988 0.0489 -0.0101
vn -0.8767 0.3339 0.3461
vn -0.6100 -0.1329 -0.7811
vn -0.6338 -0.5842 -0.5070
vn -0.9988 0.0489 -0.0101
vn 0.1831 -0.5157 -0.8370
vn -0.6338 -0.5842 -0.5070
vn -0.6100 -0.1329 -0.7811
vn 0.1831 -0.5157 -0.8370
vn 0.6394 -0.6131 -0.4640
vn -0.6338 -0.5842 -0.5070
vn 0.6118 -0.3771 -0.6953
vn 0.6394 -0.6131 -0.4640
vn 0.1831 -0.5157 -0.8370
vn 0.6118 -0.3771 -0.6953
vn 0.8365 -0.5324 -0.1297
vn 0.6394 -0.6131 -0.4640
vn 0.7241 -0.1472 -0.6738
vn 0.8365 -0.5324 -0.1297
vn 0.6118 -0.3771 -0.6953
vn 0.7241 -0.1472 -0.6738
vn 0.9257 -0.3699 0.0783
vn 0.8365 -0.5324 -0.1297
vn 0.9429 0.2287 -0.2422
vn 0.9257 -0.3699 0.0783
vn 0.7241 -0.1472 -0.6738
vn -0.4296 -0.1106 0.8962
vn 0.0771 -0.7388 0.6695
vn -0.4932 -0.2527 0.8324
vn -0.4296 -0.1106 0.8962
vn 0.1782 -0.6408 0.7468
vn 0.0771 -0.7388 0.6695
vn -0.5311 -0.4737 0.7025
vn 0.1782 -0.6408 0.7468
vn -0.4296 -0.1106 0.8962
vn -0.5311 -0.4737 0.7025
vn -0.0204 -0.8261 0.5631
vn 0.1782 -0.6408 0.7468
vn -0.3304 -0.9297 0.1626
vn -0.0204 -0.8261 0.5631
vn -0.5311 -0.4737 0.7025
vn -0.3304 -0.9297 0.1626
vn 0.3838 -0.9210 0.0664
vn -0.0204 -0.8261 0.5631
vn 0.6473 -0.6901 -0.3236
vn 0.3838 -0.9210 0.0664
vn -0.3304 -0.9297 0.1626
vn 0.6473 -0.6901 -0.3236
vn 0.7436 -0.6686 -0.0030
vn 0.3838 -0.9210 0.0664
vn -0.7916 0.0282 0.6103
vn -0.8862 0.3122 0.3423
vn -0.9006 0.3321 0.2805
vn -0.7916 0.0282 0.6103
vn -0.6072 0.1106 0.7868
vn -0.8862 0.3122 0.3423
vn -0.4296 -0.1106 0.8962
vn -0.6072 0.1106 0.7868
vn -0.7916 0.0282 0.6103
vn -0.4296 -0.1106 0.8962
vn -0.5473 0.0519 0.8353
vn -0.6072 0.1106 0.7868
vn -0.4932 -0.2527 0.8324
vn -0.5473 0.0519 0.8353
vn -0.4296 -0.1106 0.8962
vn 0.7392 -0.6689 0.0785
vn 0.7993 -0.5914 -0.1069
vn 0.6186 -0.7838 0.0545
vn 0.7392 -0.6689 0.0785
vn 0.8022 -0.5627 -0.1994
vn 0.7993 -0.5914 -0.1069
vn 0.6430 -0.6571 -0.3935
vn 0.8022 -0.5627 -0.1994
vn 0.7392 -0.6689 0.0785
vn 0.6430 -0.6571 -0.3935
vn 0.5981 -0.3968 -0.6962
vn 0.8022 -0.5627 -0.1994
vn 0.5612 -0.3661 -0.7423
vn 0.5981 -0.3968 -0.6962
vn 0.6430 -0.6571 -0.3935
vn -0.6100 -0.1329 -0.7811
vn 0.6118 -0.3771 -0.6953
vn 0.1831 -0.5157 -0.8370
vn -0.6100 -0.1329 -0.7811
vn -0.4562 0.2816 -0.8442
vn 0.6118 -0.3771 -0.6953
vn -0.8767 0.3339 0.3461
vn -0.4562 0.2816 -0.8442
vn -0.6100 -0.1329 -0.7811
vn -0.8767 0.3339 0.3461
vn -0.3972 0.3875 -0.8319
vn -0.4562 0.2816 -0.8442
vn -0.7498 0.5569 0.3574
vn -0.3972 0.3875 -0.8319
vn -0.8767 0.3339 0.3461
vn -0.6100 -0.1329 -0.7811
vn 0.6118 -0.3771 -0.6953
vn 0.1831 -0.5157 -0.8370
vn -0.6100 -0.1329 -0.7811
vn -0.4562 0.2816 -0.8442
vn 0.6118 -0.3771 -0.6953
vn -0.8767 0.3339 0.3461
vn -0.4562 0.2816 -0.8442
vn -0.6100 -0.1329 -0.7811
vn -0.8767 0.3339 0.3461
vn -0.3972 0.3875 -0.8319
vn -0.4562 0.2816 -0.8442
vn -0.7414 0.5712 0.3523
vn -0.3972 0.3875 -0.8319
vn -0.8767 0.3339 0.3461
vn 0.7680 -0.5623 -0.3067
vn 0.7757 -0.6295 -0.0453
vn 0.6866 -0.6080 -0.3987
vn 0.7680 -0.5623 -0.3067
vn 0.3592 -0.4632 0.8102
vn 0.7757 -0.6295 -0.0453
vn 0.8477 -0.5258 -0.0711
vn 0.3592 -0.4632 0.8102
vn 0.7680 -0.5623 -0.3067
vn 0.8477 -0.5258 -0.0711
vn 0.4117 -0.3629 0.8360
vn 0.3592 -0.4632 0.8102
vn 0.3592 -0.4632 0.8102
vn 0.3161 -0.5159 0.7962
vn 0.7757 -0.6295 -0.0453
vn 0.3592 -0.4632 0.8102
vn -0.4554 -0.0679 0.8877
vn 0.3161 -0.5159 0.7962
vn -0.6179 0.0536 0.7845
vn -0.4554 -0.0679 0.8877
vn 0.3592 -0.4632 0.8102
vn -0.6179 0.0536 0.7845
vn -0.7047 0.0027 0.7095
vn -0.4554 -0.0679 0.8877
vn 0.7644 -0.5170 -0.3853
vn 0.7686 -0.5001 -0.3989
vn 0.6900 -0.4123 -0.5949
vn 0.7644 -0.5170 -0.3853
vn 0.7436 -0.6686 -0.0030
vn 0.7686 -0.5001 -0.3989
vn 0.6249 -0.7803 0.0245
vn 0.7436 -0.6686 -0.0030
vn 0.7644 -0.5170 -0.3853
vn 0.6249 -0.7803 0.0245
vn 0.0771 -0.7388 0.6695
vn 0.7436 -0.6686 -0.0030
vn -0.5145 -0.0132 0.8574
vn -0.6887 0.1336 0.7126
vn -0.7758 0.0906 0.6245
vn -0.5145 -0.0132 0.8574
vn 0.3434 -0.4556 0.8213
vn -0.6887 0.1336 0.7126
vn 0.3161 -0.5159 0.7962
vn 0.3434 -0.4556 0.8213
vn -0.5145 -0.0132 0.8574
vn 0.3161 -0.5159 0.7962
vn 0.7602 -0.6486 0.0371
vn 0.3434 -0.4556 0.8213
vn 0.7704 -0.6096 -0.1869
vn 0.7602 -0.6486 0.0371
vn 0.6953 -0.6660 -0.2700
vn 0.7704 -0.6096 -0.1869
vn 0.3434 -0.4556 0.8213
vn 0.7602 -0.6486 0.0371
vn 0.8566 -0.5159 -0.0125
vn 0.3434 -0.4556 0.8213
vn 0.7704 -0.6096 -0.1869
vn 0.8566 -0.5159 -0.0125
vn 0.4117 -0.3629 0.8360
vn 0.3434 -0.4556 0.8213
vn -0.2251 0.7866 0.5750
vn -0.7498 0.5569 0.3574
vn -0.2940 0.2127 0.9318
vn -0.2251 0.7866 0.5750
vn 0.0275 0.9051 -0.4242
vn -0.7498 0.5569 0.3574
vn 0.3888 0.9003 0.1956
vn 0.0275 0.9051 -0.4242
vn -0.2251 0.7866 0.5750
vn 0.3888 0.9003 0.1956
vn 0.9275 0.3173 -0.1977
vn 0.0275 0.9051 -0.4242
vn -0.1370 0.8258 0.5471
vn -0.7414 0.5712 0.3523
vn -0.2875 0.2207 0.9320
vn -0.1370 0.8258 0.5471
vn 0.1533 0.8450 -0.5123
vn -0.7414 0.5712 0.3523
vn 0.5962 0.8012 0.0505
vn 0.1533 0.8450 -0.5123
vn -0.1370 0.8258 0.5471
vn 0.5962 0.8012 0.0505
vn 0.9429 0.2287 -0.2422
vn 0.1533 0.8450 -0.5123
vn -0.4965 -0.0763 0.8647
vn -0.5168 -0.2350 0.8232
vn -0.7270 0.1954 0.6582
vn -0.4965 -0.0763 0.8647
vn 0.1219 -0.7601 0.6382
vn -0.5168 -0.2350 0.8232
vn 0.2227 -0.6620 0.7156
vn 0.1219 -0.7601 0.6382
vn -0.4965 -0.0763 0.8647
vn 0.1533 0.8450 -0.5123
vn -0.3972 0.3875 -0.8319
vn -0.7414 0.5712 0.3523
vn 0.1533 0.8450 -0.5123
vn 0.7241 -0.1472 -0.6738
vn -0.3972 0.3875 -0.8319
vn 0.9429 0.2287 -0.2422
vn 0.7241 -0.1472 -0.6738
vn 0.1533 0.8450 -0.5123
vn -0.4379 0.1025 0.8932
vn 0.3592 -0.4632 0.8102
vn 0.4117 -0.3629 0.8360
vn -0.4379 0.1025 0.8932
vn -0.6179 0.0536 0.7845
vn 0.3592 -0.4632 0.8102
vn 0.7686 -0.5001 -0.3989
vn 0.6473 -0.6901 -0.3236
vn 0.6822 -0.4238 -0.5959
vn 0.7686 -0.5001 -0.3989
vn 0.7436 -0.6686 -0.0030
vn 0.6473 -0.6901 -0.3236
vn -0.4896 0.1130 0.8646
vn 0.3434 -0.4556 0.8213
vn 0.4117 -0.3629 0.8360
vn -0.4896 0.1130 0.8646
vn -0.6887 0.1336 0.7126
vn 0.3434 -0.4556 0.8213
vn 0.3961 -0.9166 0.0537
vn 0.6430 -0.6571 -0.3935
vn 0.7392 -0.6689 0.0785
vn 0.3961 -0.9166 0.0537
vn -0.3304 -0.9297 0.1626
vn 0.6430 -0.6571 -0.3935
vn -0.7916 0.0282 0.6103
vn -0.5311 -0.4737 0.7025
vn -0.4296 -0.1106 0.8962
vn -0.7916 0.0282 0.6103
vn -0.3304 -0.9297 0.1626
vn -0.5311 -0.4737 0.7025
vn 0.3838 -0.9210 0.0664
vn 0.1782 -0.6408 0.7468
vn -0.0204 -0.8261 0.5631
vn 0.3838 -0.9210 0.0664
vn 0.7436 -0.6686 -0.0030
vn 0.1782 -0.6408 0.7468
vn 0.2227 -0.6620 0.7156
vn -0.5212 -0.4887 0.6997
vn 0.0026 -0.8371 0.5470
vn 0.2227 -0.6620 0.7156
vn -0.4965 -0.0763 0.8647
vn -0.5212 -0.4887 0.6997
vn -0.3972 0.3875 -0.8319
vn 0.6118 -0.3771 -0.6953
vn -0.4562 0.2816 -0.8442
vn -0.3972 0.3875 -0.8319
vn 0.7265 -0.1300 -0.6747
vn 0.6118 -0.3771 -0.6953
vn -0.5392 0.1248 0.8329
vn -0.7498 0.5569 0.3574
vn -0.8767 0.3339 0.3461
vn -0.5392 0.1248 0.8329
vn -0.2940 0.2127 0.9318
vn -0.7498 0.5569 0.3574
vn 0.7265 -0.1300 -0.6747
vn 0.0275 0.9051 -0.4242
vn 0.9275 0.3173 -0.1977
vn 0.7265 -0.1300 -0.6747
vn -0.3972 0.3875 -0.8319
vn 0.0275 0.9051 -0.4242
vn -0.5392 0.1248 0.8329
vn -0.7414 0.5712 0.3523
vn -0.8767 0.3339 0.3461
vn -0.5392 0.1248 0.8329
vn -0.2875 0.2207 0.9320
vn -0.7414 0.5712 0.3523
vn -0.3972 0.3875 -0.8319
vn 0.6118 -0.3771 -0.6953
vn -0.4562 0.2816 -0.8442
vn -0.3972 0.3875 -0.8319
vn 0.7241 -0.1472 -0.6738
vn 0.6118 -0.3771 -0.6953
vn -0.4217 0.3233 -0.8471
vn -0.4129 0.3171 -0.8538
vn -0.4312 0.3281 -0.8405
vn -0.4406 0.3327 -0.8338
vn -0.4312 0.3281 -0.8405
vn -0.4506 0.3359 -0.8271
vn -0.4406 0.3327 -0.8338
vn -0.4312 0.3281 -0.8405
vn -0.4506 0.3359 -0.8271
vn -0.8332 0.3001 0.4644
vn -0.7538 -0.0208 0.6567
vn -0.7294 0.2154 0.6493
vn -0.4217 0.3233 -0.8471
vn -0.4129 0.3171 -0.8538
vn -0.4312 0.3281 -0.8405
vn 0.0771 -0.7388 0.6695
vn 0.1782 -0.6408 0.7468
vn 0.7436 -0.6686 -0.0030
vn -0.9988 0.0489 -0.0101
vn -0.6338 -0.5842 -0.5070
vn -0.8241 0.0860 0.5599
vn 0.0275 0.9051 -0.4242
vn -0.3972 0.3875 -0.8319
vn -0.7498 0.5569 0.3574
vn -0.9988 0.0489 -0.0101
vn -0.6338 -0.5842 -0.5070
vn -0.8241 0.0860 0.5599
# 384 vertex normals

vt -0.5498 0.1010 0.0000
vt -0.3392 0.1435 0.0000
vt -0.5498 0.0085 0.0000
vt -0.5387 0.4195 0.0000
vt -0.9951 0.0651 0.0000
vt -0.9951 0.1030 0.0000
vt -0.9987 0.0651 0.0000
vt -0.9951 0.1094 0.0000
vt -0.5445 0.4420 0.0000
vt -0.4241 0.7088 0.0000
vt -0.4189 0.6671 0.0000
vt -0.6673 0.7850 0.0000
vt -0.3105 0.8955 0.0000
vt -0.5525 0.9941 0.0000
vt -0.3105 0.8551 0.0000
vt -0.3105 0.8541 0.0000
vt -0.2990 0.8955 0.0000
vt -0.7497 0.7850 0.0000
vt -0.7679 0.9517 0.0000
vt -0.9721 0.7113 0.0000
vt -0.5498 0.0729 0.0000
vt -0.3392 0.1002 0.0000
vt -0.6673 0.6104 0.0000
vt -0.7530 0.6104 0.0000
vt -0.2943 0.2073 0.0000
vt -0.4037 0.7147 0.0000
vt -0.3161 0.1441 0.0000
vt -0.0280 0.9912 0.0000
vt -0.0280 0.9025 0.0000
vt -0.0042 0.9915 0.0000
vt -0.4037 0.7647 0.0000
vt -0.3161 0.1417 0.0000
vt -0.9721 0.6562 0.0000
vt -0.7539 0.6104 0.0000
# 34 texture coords

g polygon1
usemtl mat8
s 1
f 1/1/1 2/2/2 3/3/3 
f 1/1/4 4/4/5 2/2/6 
f 5/5/7 4/4/8 1/1/9 
f 5/5/10 6/6/11 4/4/12 
f 7/7/13 6/6/14 5/5/15 
f 7/7/16 8/8/17 6/6/18 
f 9/6/19 8/8/20 7/7/21 
f 9/6/22 10/9/23 8/8/24 
f 11/4/25 10/9/26 9/6/27 
f 11/4/28 12/10/29 10/9/30 
f 13/11/31 12/10/32 11/4/33 
f 14/12/34 15/13/35 16/14/36 
f 14/12/37 17/15/38 15/13/39 
f 18/16/40 17/15/41 14/12/42 
f 18/16/43 19/17/44 17/15/45 
f 20/15/46 19/17/47 18/16/48 
f 20/15/49 21/13/50 19/17/51 
f 22/12/52 21/13/53 20/15/54 
f 22/12/55 23/14/56 21/13/57 
f 24/18/58 23/14/59 22/12/60 
f 24/18/61 25/19/62 23/14/63 
f 26/20/64 25/19/65 24/18/66 
f 27/12/67 28/13/68 29/14/69 
f 27/12/70 30/15/71 28/13/72 
f 31/16/73 30/15/74 27/12/75 
f 31/16/76 32/17/77 30/15/78 
f 33/15/79 32/17/80 31/16/81 
f 33/15/82 34/13/83 32/17/84 
f 35/12/85 34/13/86 33/15/87 
f 35/12/88 36/14/89 34/13/90 
f 37/18/91 36/14/92 35/12/93 
f 37/18/94 38/19/95 36/14/96 
f 39/20/97 38/19/98 37/18/99 
f 40/4/100 41/10/101 42/11/102 
f 40/4/103 43/9/104 41/10/105 
f 44/6/106 43/9/107 40/4/108 
f 44/6/109 45/8/110 43/9/111 
f 46/7/112 45/8/113 44/6/114 
f 46/7/115 47/6/116 45/8/117 
f 48/5/118 47/6/119 46/7/120 
f 48/5/121 49/4/122 47/6/123 
f 50/5/124 51/21/125 52/3/126 
f 50/5/127 53/1/128 51/21/129 
f 40/4/130 53/1/131 50/5/132 
f 40/4/133 54/22/134 53/1/135 
f 42/11/136 54/22/137 40/4/138 
f 11/4/139 55/22/140 13/11/141 
f 11/4/142 56/1/143 55/22/144 
f 57/5/145 56/1/146 11/4/147 
f 57/5/148 58/21/149 56/1/150 
f 59/3/151 58/21/152 57/5/153 
f 18/16/154 22/12/155 20/15/156 
f 18/16/157 60/23/158 22/12/159 
f 14/12/160 60/23/161 18/16/162 
f 14/12/163 61/24/164 60/23/165 
f 62/18/166 61/24/167 14/12/168 
f 31/16/169 35/12/170 33/15/171 
f 31/16/172 63/23/173 35/12/174 
f 27/12/175 63/23/176 31/16/177 
f 27/12/178 64/24/179 63/23/180 
f 65/18/181 64/24/182 27/12/183 
f 66/25/184 67/26/185 68/27/186 
f 66/25/187 69/28/188 67/26/189 
f 70/29/190 69/28/191 66/25/192 
f 70/29/193 71/30/194 69/28/195 
f 69/28/196 72/31/197 67/26/198 
f 69/28/199 73/26/200 72/31/201 
f 74/25/202 73/26/203 69/28/204 
f 74/25/205 75/32/206 73/26/207 
f 76/2/208 77/1/209 78/3/210 
f 76/2/211 49/4/212 77/1/213 
f 79/11/214 49/4/215 76/2/216 
f 79/11/217 41/10/218 49/4/219 
f 80/26/220 81/25/221 82/27/222 
f 80/26/223 83/28/224 81/25/225 
f 84/31/226 83/28/227 80/26/228 
f 84/31/229 85/26/230 83/28/231 
f 86/25/232 85/26/233 87/32/234 
f 86/25/235 83/28/236 85/26/237 
f 88/29/238 83/28/239 86/25/240 
f 88/29/241 89/30/242 83/28/243 
f 90/20/244 62/18/245 91/19/246 
f 90/20/247 92/33/248 62/18/249 
f 93/20/250 92/33/251 90/20/252 
f 93/20/253 26/20/254 92/33/255 
f 94/20/256 65/18/257 95/19/258 
f 94/20/259 96/33/260 65/18/261 
f 97/20/262 96/33/263 94/20/264 
f 97/20/265 39/20/266 96/33/267 
f 4/4/268 98/11/269 2/2/270 
f 4/4/271 12/10/272 98/11/273 
f 10/9/274 12/10/275 4/4/276 
f 96/33/277 99/34/278 65/18/279 
f 96/33/280 37/18/281 99/34/282 
f 39/20/283 37/18/284 96/33/285 
f 100/29/286 69/28/287 71/30/288 
f 100/29/289 74/25/290 69/28/291 
f 77/1/292 48/5/293 101/3/294 
f 77/1/295 49/4/296 48/5/297 
f 102/29/298 83/28/299 89/30/300 
f 102/29/301 81/25/302 83/28/303 
f 9/6/304 57/5/305 11/4/306 
f 9/6/307 7/7/308 57/5/309 
f 50/5/310 44/6/311 40/4/312 
f 50/5/313 46/7/314 44/6/315 
f 47/6/316 43/9/317 45/8/318 
f 47/6/319 49/4/320 43/9/321 
f 10/9/322 6/6/323 8/8/324 
f 10/9/325 4/4/326 6/6/327 
f 61/24/328 22/12/329 60/23/330 
f 61/24/331 24/18/332 22/12/333 
f 16/14/334 62/18/335 14/12/336 
f 16/14/337 91/19/338 62/18/339 
f 24/18/340 92/33/341 26/20/342 
f 24/18/343 103/34/344 92/33/345 
f 29/14/346 65/18/347 27/12/348 
f 29/14/349 95/19/350 65/18/351 
f 64/24/352 35/12/353 63/23/354 
f 64/24/355 37/18/356 35/12/357 
f 104/3/358 105/5/359 106/7/360 
f 107/3/361 106/7/362 108/5/363 
f 109/3/364 110/7/365 111/5/366 
f 112/3/367 5/5/368 1/1/369 
f 113/3/370 114/5/371 110/7/372 
f 41/10/373 43/9/374 49/4/375 
f 17/15/376 19/17/377 15/13/378 
f 92/33/379 103/34/380 62/18/381 
f 30/15/382 32/17/383 28/13/384 
# 0 polygons - 128 triangles

